<?xml version="1.0" ?><svg viewBox="0 0 32 32" xmlns="http://www.w3.org/2000/svg"><defs><style>.cls-1{fill:#dbe9fa;}.cls-2{fill:#52acf9;}.cls-3{fill:#fff;}.cls-4{fill:#d9dce1;}</style></defs><g id="package"><circle class="cls-1" cx="16" cy="16" r="16"/><rect class="cls-2" height="28" width="28" x="2" y="2"/><rect class="cls-3" height="20" width="20" x="6" y="6"/><polygon class="cls-3" points="6 6 6 11 6 13 6 17 26 17 26 13 26 11 26 6 6 6"/><rect class="cls-3" height="7" width="20" x="6" y="19"/><polygon class="cls-4" points="25.5 8 30 2 2 2 6.5 8 25.5 8"/><polygon class="cls-4" points="6.5 24 2 30 30 30 25.5 24 6.5 24"/><polygon class="cls-4" points="25.5 8 30 2 2 2 6.5 8 25.5 8"/><polygon class="cls-4" points="6.5 24 2 30 30 30 25.5 24 6.5 24"/><path d="M2,2V30H30V2ZM26,4,24.5,6H7.5L6,4ZM8,21H24v3H8Zm0-2V17H24v2Zm16-4H8V13H24ZM8,11V8H24v3ZM4,4.67,6,7.33V24.67L4,27.33ZM6,28l1.5-2h17L26,28Zm20-3.33V7.33l2-2.66V27.33Z"/></g></svg>